<svg id="Layer_1" data-name="Layer 1" xmlns="http://www.w3.org/2000/svg" viewBox="0 0 378.7 141.82"><defs><style>.cls-1{fill:#fff;}.cls-2{fill:#1d94ff;}</style></defs><path class="cls-1" d="M34,18.6a7.4,7.4,0,0,1-14.8,0,7.56,7.56,0,0,1,7.4-7.6A7.56,7.56,0,0,1,34,18.6Zm-2.1,81.8H21.05V44.2h10.8Z"/><path class="cls-1" d="M120.15,51.8h.2c3.4-6,10.1-9.2,16.9-9.2,15.8,0,19.9,10.7,19.9,24.4v33.4h-10.8V68.2c0-9.6-1.3-16.1-12.4-16.1-13.9,0-13.9,12.2-13.9,22.4v25.9h-10.8V44.2h10.8v7.6Z"/><path class="cls-1" d="M222.75,72.4a30,30,0,1,1-30-29.9C209.55,42.6,222.75,55.5,222.75,72.4Zm-49.2,0c0,10.6,8.5,19.6,19.2,19.6S212,83,212,72.4a19.42,19.42,0,0,0-19.2-19.6C182.05,52.8,173.55,61.8,173.55,72.4Z"/><path class="cls-1" d="M238.65,51.3h.2c3.1-4.9,8.8-8.8,14.9-8.8,7.3,0,12.6,3.7,16.2,10a20.34,20.34,0,0,1,17.3-10c14.8,0,18.6,11.5,18.6,24.2v33.7h-10.8V68.6c0-7.2-1-16.4-10.4-16.4-11.5,0-12.4,12-12.4,20.6v27.6h-10.8V70.6c0-7.3-.4-18.5-10.3-18.5-11.5,0-12.5,11.9-12.5,20.6v27.7h-10.8V44.2h10.8Z"/><path class="cls-1" d="M307,44.2h12.6l19,35.6,17.6-35.6h12.1l-45.5,88.3h-12.2l22.1-41.8Z"/><path class="cls-2" d="M99,72.3A27.1,27.1,0,1,1,71.88,45.21,27.14,27.14,0,0,1,99,72.3Zm-48.19,0a21.1,21.1,0,1,0,21.1-21.09A21.09,21.09,0,0,0,50.78,72.3Z"/><circle class="cls-2" cx="71.88" cy="72.3" r="7.82"/><circle class="cls-2" cx="48.49" cy="72.3" r="7.82"/><circle class="cls-2" cx="83.67" cy="93.13" r="7.82"/><circle class="cls-2" cx="83.67" cy="51.48" r="7.82"/></svg>