<svg id="Layer_1" data-name="Layer 1" xmlns="http://www.w3.org/2000/svg" viewBox="0 0 378.7 142.71"><defs><style>.cls-1{fill:#111;}.cls-2{fill:#1d94ff;}</style></defs><path class="cls-1" d="M31.6,18.48a7.4,7.4,0,0,1-14.8,0,7.56,7.56,0,0,1,7.4-7.6A7.56,7.56,0,0,1,31.6,18.48Zm-2.1,81.8H18.7V44.08H29.5Z"/><path class="cls-1" d="M117.8,51.68h.2c3.4-6,10.1-9.2,16.9-9.2,15.8,0,19.9,10.7,19.9,24.4v33.4H144V68.08c0-9.6-1.3-16.1-12.4-16.1-13.9,0-13.9,12.2-13.9,22.4v25.9H106.9V44.08h10.8v7.6Z"/><path class="cls-1" d="M220.4,72.28a30,30,0,1,1-30-29.9C207.2,42.48,220.4,55.38,220.4,72.28Zm-49.2,0c0,10.6,8.5,19.6,19.2,19.6s19.2-9,19.2-19.6a19.42,19.42,0,0,0-19.2-19.6C179.7,52.68,171.2,61.68,171.2,72.28Z"/><path class="cls-1" d="M236.3,51.18h.2c3.1-4.9,8.8-8.8,14.9-8.8,7.3,0,12.6,3.7,16.2,10a20.34,20.34,0,0,1,17.3-10c14.8,0,18.6,11.5,18.6,24.2v33.7H292.7V68.48c0-7.2-1-16.4-10.4-16.4-11.5,0-12.4,12-12.4,20.6v27.6H259.1V70.48c0-7.3-.4-18.5-10.3-18.5-11.5,0-12.5,11.9-12.5,20.6v27.7H225.5V44.08h10.8Z"/><path class="cls-1" d="M304.6,44.08h12.6l19,35.6,17.6-35.6h12.1l-45.5,88.3H308.2l22.1-41.8Z"/><path class="cls-2" d="M96.62,72.18A27.1,27.1,0,1,1,69.53,45.09,27.14,27.14,0,0,1,96.62,72.18Zm-48.19,0a21.1,21.1,0,1,0,21.1-21.09A21.09,21.09,0,0,0,48.43,72.18Z"/><circle class="cls-2" cx="69.53" cy="72.18" r="7.82"/><circle class="cls-2" cx="46.14" cy="72.18" r="7.82"/><circle class="cls-2" cx="81.32" cy="93.01" r="7.82"/><circle class="cls-2" cx="81.32" cy="51.35" r="7.82"/></svg>